<?xml version="1.0" encoding="UTF-8"?>
<svg width="256px" height="256px" viewBox="0 0 256 256" version="1.1" xmlns="http://www.w3.org/2000/svg" xmlns:xlink="http://www.w3.org/1999/xlink">
    <title>icon_auth_b</title>
    <g id="icon_auth_b" stroke="none" stroke-width="1" fill="none" fill-rule="evenodd">
        <g id="编组" transform="translate(17.000000, 0.000000)" fill-rule="nonzero">
            <path d="M110.993391,0 L217.17535,45.9957643 C220.104343,47.2659364 222,50.1548621 222,53.3487387 L222,150.709526 C222,176.48461 208.253052,200.302429 185.953915,213.183359 L119.003632,251.852598 C114.046878,254.715801 107.939904,254.715801 102.98315,251.852598 L36.0460851,213.183359 C13.7398335,200.295303 0,176.480913 0,150.709526 L0,53.3619635 C0,50.174793 1.89020542,47.2785674 4.82465019,46.0089891 L110.993391,0 Z" id="路径" fill="#542DE0"></path>
            <path d="M132.749138,67.0153404 C111.776755,67.0153404 94.6881465,84.1039489 94.6881465,105.076332 C94.6881465,107.579209 94.9470648,110.082086 95.4649014,112.584963 L95.8101258,114.397391 L51.1035644,159.103952 L51.1035644,185.858844 L82.3463738,185.858844 L82.3463738,170.323746 L96.9321052,170.323746 L96.9321052,155.738014 L111.345224,155.738014 L111.345224,141.065977 L116.264672,141.065977 L116.264672,139.685079 L120.75259,141.152283 C124.550058,142.446875 128.606445,143.051017 132.576526,143.051017 C153.548909,143.051017 170.637517,125.962409 170.637517,104.990026 C170.810129,84.1039489 153.721521,67.0153404 132.749138,67.0153404 L132.749138,67.0153404 Z M146.989645,98.8622925 C146.989645,103.263904 143.364789,106.88876 138.963177,106.88876 C134.561566,106.88876 130.93671,103.263904 130.93671,98.8622925 C130.93671,94.4606812 134.561566,90.8358249 138.963177,90.8358249 C143.364789,90.8358249 146.989645,94.3743751 146.989645,98.8622925 Z" id="形状" fill="#C9BEF7"></path>
        </g>
    </g>
</svg>